<svg width="80" height="80" viewBox="0 0 80 80" fill="none" xmlns="http://www.w3.org/2000/svg">
<path d="M17.324 25.5972C29.848 13.3342 50.154 13.3342 62.678 25.5972L64.186 27.0732C64.3346 27.2174 64.4527 27.39 64.5333 27.5806C64.6139 27.7713 64.6555 27.9762 64.6555 28.1832C64.6555 28.3902 64.6139 28.5952 64.5333 28.7858C64.4527 28.9765 64.3346 29.149 64.186 29.2932L59.029 34.3412C58.8772 34.4884 58.674 34.5707 58.4625 34.5707C58.2511 34.5707 58.0479 34.4884 57.896 34.3412L55.821 32.3112C47.084 23.7562 32.918 23.7562 24.181 32.3112L21.959 34.4852C21.8071 34.6327 21.6038 34.7152 21.392 34.7152C21.1803 34.7152 20.9769 34.6327 20.825 34.4852L15.669 29.4372C15.5205 29.293 15.4024 29.1205 15.3218 28.9298C15.2411 28.7392 15.1996 28.5342 15.1996 28.3272C15.1996 28.1202 15.2411 27.9153 15.3218 27.7246C15.4024 27.534 15.5205 27.3614 15.669 27.2172L17.324 25.5972ZM73.342 36.0372L77.932 40.5312C78.0806 40.6754 78.1987 40.848 78.2793 41.0386C78.3599 41.2293 78.4015 41.4342 78.4015 41.6412C78.4015 41.8482 78.3599 42.0532 78.2793 42.2438C78.1987 42.4345 78.0806 42.607 77.932 42.7512L57.239 63.0112C56.9352 63.3062 56.5285 63.4711 56.105 63.4711C55.6816 63.4711 55.2748 63.3062 54.971 63.0112L40.285 48.6312C40.2091 48.5575 40.1074 48.5163 40.0015 48.5163C39.8957 48.5163 39.794 48.5575 39.718 48.6312L25.031 63.0122C24.7272 63.3072 24.3205 63.4721 23.897 63.4721C23.4736 63.4721 23.0668 63.3072 22.763 63.0122L2.07101 42.7512C1.92247 42.607 1.80438 42.4345 1.72374 42.2438C1.64311 42.0532 1.60156 41.8482 1.60156 41.6412C1.60156 41.4342 1.64311 41.2293 1.72374 41.0386C1.80438 40.848 1.92247 40.6754 2.07101 40.5312L6.66001 36.0372C6.96382 35.7423 7.37058 35.5773 7.79401 35.5773C8.21743 35.5773 8.6242 35.7423 8.92801 36.0372L23.614 50.4172C23.771 50.5702 24.024 50.5702 24.181 50.4172L38.867 36.0372C39.1708 35.7423 39.5776 35.5773 40.001 35.5773C40.4245 35.5773 40.8312 35.7423 41.135 36.0372L55.821 50.4172C55.978 50.5702 56.231 50.5702 56.388 50.4172L71.074 36.0372C71.3778 35.7423 71.7846 35.5773 72.208 35.5773C72.6315 35.5773 73.0382 35.7423 73.342 36.0372Z" fill="#03ACDA"/>
<path d="M17.324 25.5972C29.848 13.3342 50.154 13.3342 62.678 25.5972L64.186 27.0732C64.3346 27.2174 64.4527 27.39 64.5333 27.5806C64.6139 27.7713 64.6555 27.9762 64.6555 28.1832C64.6555 28.3902 64.6139 28.5952 64.5333 28.7858C64.4527 28.9765 64.3346 29.149 64.186 29.2932L59.029 34.3412C58.8772 34.4884 58.674 34.5707 58.4625 34.5707C58.2511 34.5707 58.0479 34.4884 57.896 34.3412L55.821 32.3112C47.084 23.7562 32.918 23.7562 24.181 32.3112L21.959 34.4852C21.8071 34.6327 21.6038 34.7152 21.392 34.7152C21.1803 34.7152 20.9769 34.6327 20.825 34.4852L15.669 29.4372C15.5205 29.293 15.4024 29.1205 15.3218 28.9298C15.2411 28.7392 15.1996 28.5342 15.1996 28.3272C15.1996 28.1202 15.2411 27.9153 15.3218 27.7246C15.4024 27.534 15.5205 27.3614 15.669 27.2172L17.324 25.5972ZM73.342 36.0372L77.932 40.5312C78.0806 40.6754 78.1987 40.848 78.2793 41.0386C78.3599 41.2293 78.4015 41.4342 78.4015 41.6412C78.4015 41.8482 78.3599 42.0532 78.2793 42.2438C78.1987 42.4345 78.0806 42.607 77.932 42.7512L57.239 63.0112C56.9352 63.3062 56.5285 63.4711 56.105 63.4711C55.6816 63.4711 55.2748 63.3062 54.971 63.0112L40.285 48.6312C40.2091 48.5575 40.1074 48.5163 40.0015 48.5163C39.8957 48.5163 39.794 48.5575 39.718 48.6312L25.031 63.0122C24.7272 63.3072 24.3205 63.4721 23.897 63.4721C23.4736 63.4721 23.0668 63.3072 22.763 63.0122L2.07101 42.7512C1.92247 42.607 1.80438 42.4345 1.72374 42.2438C1.64311 42.0532 1.60156 41.8482 1.60156 41.6412C1.60156 41.4342 1.64311 41.2293 1.72374 41.0386C1.80438 40.848 1.92247 40.6754 2.07101 40.5312L6.66001 36.0372C6.96382 35.7423 7.37058 35.5773 7.79401 35.5773C8.21743 35.5773 8.6242 35.7423 8.92801 36.0372L23.614 50.4172C23.771 50.5702 24.024 50.5702 24.181 50.4172L38.867 36.0372C39.1708 35.7423 39.5776 35.5773 40.001 35.5773C40.4245 35.5773 40.8312 35.7423 41.135 36.0372L55.821 50.4172C55.978 50.5702 56.231 50.5702 56.388 50.4172L71.074 36.0372C71.3778 35.7423 71.7846 35.5773 72.208 35.5773C72.6315 35.5773 73.0382 35.7423 73.342 36.0372Z" fill="url(#paint0_radial_76_1554)"/>
<path d="M17.324 25.5972C29.848 13.3342 50.154 13.3342 62.678 25.5972L64.186 27.0732C64.3346 27.2174 64.4527 27.39 64.5333 27.5806C64.6139 27.7713 64.6555 27.9762 64.6555 28.1832C64.6555 28.3902 64.6139 28.5952 64.5333 28.7858C64.4527 28.9765 64.3346 29.149 64.186 29.2932L59.029 34.3412C58.8772 34.4884 58.674 34.5707 58.4625 34.5707C58.2511 34.5707 58.0479 34.4884 57.896 34.3412L55.821 32.3112C47.084 23.7562 32.918 23.7562 24.181 32.3112L21.959 34.4852C21.8071 34.6327 21.6038 34.7152 21.392 34.7152C21.1803 34.7152 20.9769 34.6327 20.825 34.4852L15.669 29.4372C15.5205 29.293 15.4024 29.1205 15.3218 28.9298C15.2411 28.7392 15.1996 28.5342 15.1996 28.3272C15.1996 28.1202 15.2411 27.9153 15.3218 27.7246C15.4024 27.534 15.5205 27.3614 15.669 27.2172L17.324 25.5972ZM73.342 36.0372L77.932 40.5312C78.0806 40.6754 78.1987 40.848 78.2793 41.0386C78.3599 41.2293 78.4015 41.4342 78.4015 41.6412C78.4015 41.8482 78.3599 42.0532 78.2793 42.2438C78.1987 42.4345 78.0806 42.607 77.932 42.7512L57.239 63.0112C56.9352 63.3062 56.5285 63.4711 56.105 63.4711C55.6816 63.4711 55.2748 63.3062 54.971 63.0112L40.285 48.6312C40.2091 48.5575 40.1074 48.5163 40.0015 48.5163C39.8957 48.5163 39.794 48.5575 39.718 48.6312L25.031 63.0122C24.7272 63.3072 24.3205 63.4721 23.897 63.4721C23.4736 63.4721 23.0668 63.3072 22.763 63.0122L2.07101 42.7512C1.92247 42.607 1.80438 42.4345 1.72374 42.2438C1.64311 42.0532 1.60156 41.8482 1.60156 41.6412C1.60156 41.4342 1.64311 41.2293 1.72374 41.0386C1.80438 40.848 1.92247 40.6754 2.07101 40.5312L6.66001 36.0372C6.96382 35.7423 7.37058 35.5773 7.79401 35.5773C8.21743 35.5773 8.6242 35.7423 8.92801 36.0372L23.614 50.4172C23.771 50.5702 24.024 50.5702 24.181 50.4172L38.867 36.0372C39.1708 35.7423 39.5776 35.5773 40.001 35.5773C40.4245 35.5773 40.8312 35.7423 41.135 36.0372L55.821 50.4172C55.978 50.5702 56.231 50.5702 56.388 50.4172L71.074 36.0372C71.3778 35.7423 71.7846 35.5773 72.208 35.5773C72.6315 35.5773 73.0382 35.7423 73.342 36.0372Z" fill="url(#paint1_radial_76_1554)"/>
<path d="M17.324 25.5972C29.848 13.3342 50.154 13.3342 62.678 25.5972L64.186 27.0732C64.3346 27.2174 64.4527 27.39 64.5333 27.5806C64.6139 27.7713 64.6555 27.9762 64.6555 28.1832C64.6555 28.3902 64.6139 28.5952 64.5333 28.7858C64.4527 28.9765 64.3346 29.149 64.186 29.2932L59.029 34.3412C58.8772 34.4884 58.674 34.5707 58.4625 34.5707C58.2511 34.5707 58.0479 34.4884 57.896 34.3412L55.821 32.3112C47.084 23.7562 32.918 23.7562 24.181 32.3112L21.959 34.4852C21.8071 34.6327 21.6038 34.7152 21.392 34.7152C21.1803 34.7152 20.9769 34.6327 20.825 34.4852L15.669 29.4372C15.5205 29.293 15.4024 29.1205 15.3218 28.9298C15.2411 28.7392 15.1996 28.5342 15.1996 28.3272C15.1996 28.1202 15.2411 27.9153 15.3218 27.7246C15.4024 27.534 15.5205 27.3614 15.669 27.2172L17.324 25.5972ZM73.342 36.0372L77.932 40.5312C78.0806 40.6754 78.1987 40.848 78.2793 41.0386C78.3599 41.2293 78.4015 41.4342 78.4015 41.6412C78.4015 41.8482 78.3599 42.0532 78.2793 42.2438C78.1987 42.4345 78.0806 42.607 77.932 42.7512L57.239 63.0112C56.9352 63.3062 56.5285 63.4711 56.105 63.4711C55.6816 63.4711 55.2748 63.3062 54.971 63.0112L40.285 48.6312C40.2091 48.5575 40.1074 48.5163 40.0015 48.5163C39.8957 48.5163 39.794 48.5575 39.718 48.6312L25.031 63.0122C24.7272 63.3072 24.3205 63.4721 23.897 63.4721C23.4736 63.4721 23.0668 63.3072 22.763 63.0122L2.07101 42.7512C1.92247 42.607 1.80438 42.4345 1.72374 42.2438C1.64311 42.0532 1.60156 41.8482 1.60156 41.6412C1.60156 41.4342 1.64311 41.2293 1.72374 41.0386C1.80438 40.848 1.92247 40.6754 2.07101 40.5312L6.66001 36.0372C6.96382 35.7423 7.37058 35.5773 7.79401 35.5773C8.21743 35.5773 8.6242 35.7423 8.92801 36.0372L23.614 50.4172C23.771 50.5702 24.024 50.5702 24.181 50.4172L38.867 36.0372C39.1708 35.7423 39.5776 35.5773 40.001 35.5773C40.4245 35.5773 40.8312 35.7423 41.135 36.0372L55.821 50.4172C55.978 50.5702 56.231 50.5702 56.388 50.4172L71.074 36.0372C71.3778 35.7423 71.7846 35.5773 72.208 35.5773C72.6315 35.5773 73.0382 35.7423 73.342 36.0372Z" fill="url(#paint2_radial_76_1554)"/>
<path d="M17.324 25.5972C29.848 13.3342 50.154 13.3342 62.678 25.5972L64.186 27.0732C64.3346 27.2174 64.4527 27.39 64.5333 27.5806C64.6139 27.7713 64.6555 27.9762 64.6555 28.1832C64.6555 28.3902 64.6139 28.5952 64.5333 28.7858C64.4527 28.9765 64.3346 29.149 64.186 29.2932L59.029 34.3412C58.8772 34.4884 58.674 34.5707 58.4625 34.5707C58.2511 34.5707 58.0479 34.4884 57.896 34.3412L55.821 32.3112C47.084 23.7562 32.918 23.7562 24.181 32.3112L21.959 34.4852C21.8071 34.6327 21.6038 34.7152 21.392 34.7152C21.1803 34.7152 20.9769 34.6327 20.825 34.4852L15.669 29.4372C15.5205 29.293 15.4024 29.1205 15.3218 28.9298C15.2411 28.7392 15.1996 28.5342 15.1996 28.3272C15.1996 28.1202 15.2411 27.9153 15.3218 27.7246C15.4024 27.534 15.5205 27.3614 15.669 27.2172L17.324 25.5972ZM73.342 36.0372L77.932 40.5312C78.0806 40.6754 78.1987 40.848 78.2793 41.0386C78.3599 41.2293 78.4015 41.4342 78.4015 41.6412C78.4015 41.8482 78.3599 42.0532 78.2793 42.2438C78.1987 42.4345 78.0806 42.607 77.932 42.7512L57.239 63.0112C56.9352 63.3062 56.5285 63.4711 56.105 63.4711C55.6816 63.4711 55.2748 63.3062 54.971 63.0112L40.285 48.6312C40.2091 48.5575 40.1074 48.5163 40.0015 48.5163C39.8957 48.5163 39.794 48.5575 39.718 48.6312L25.031 63.0122C24.7272 63.3072 24.3205 63.4721 23.897 63.4721C23.4736 63.4721 23.0668 63.3072 22.763 63.0122L2.07101 42.7512C1.92247 42.607 1.80438 42.4345 1.72374 42.2438C1.64311 42.0532 1.60156 41.8482 1.60156 41.6412C1.60156 41.4342 1.64311 41.2293 1.72374 41.0386C1.80438 40.848 1.92247 40.6754 2.07101 40.5312L6.66001 36.0372C6.96382 35.7423 7.37058 35.5773 7.79401 35.5773C8.21743 35.5773 8.6242 35.7423 8.92801 36.0372L23.614 50.4172C23.771 50.5702 24.024 50.5702 24.181 50.4172L38.867 36.0372C39.1708 35.7423 39.5776 35.5773 40.001 35.5773C40.4245 35.5773 40.8312 35.7423 41.135 36.0372L55.821 50.4172C55.978 50.5702 56.231 50.5702 56.388 50.4172L71.074 36.0372C71.3778 35.7423 71.7846 35.5773 72.208 35.5773C72.6315 35.5773 73.0382 35.7423 73.342 36.0372Z" fill="url(#paint3_radial_76_1554)"/>
<path d="M17.324 25.5972C29.848 13.3342 50.154 13.3342 62.678 25.5972L64.186 27.0732C64.3346 27.2174 64.4527 27.39 64.5333 27.5806C64.6139 27.7713 64.6555 27.9762 64.6555 28.1832C64.6555 28.3902 64.6139 28.5952 64.5333 28.7858C64.4527 28.9765 64.3346 29.149 64.186 29.2932L59.029 34.3412C58.8772 34.4884 58.674 34.5707 58.4625 34.5707C58.2511 34.5707 58.0479 34.4884 57.896 34.3412L55.821 32.3112C47.084 23.7562 32.918 23.7562 24.181 32.3112L21.959 34.4852C21.8071 34.6327 21.6038 34.7152 21.392 34.7152C21.1803 34.7152 20.9769 34.6327 20.825 34.4852L15.669 29.4372C15.5205 29.293 15.4024 29.1205 15.3218 28.9298C15.2411 28.7392 15.1996 28.5342 15.1996 28.3272C15.1996 28.1202 15.2411 27.9153 15.3218 27.7246C15.4024 27.534 15.5205 27.3614 15.669 27.2172L17.324 25.5972ZM73.342 36.0372L77.932 40.5312C78.0806 40.6754 78.1987 40.848 78.2793 41.0386C78.3599 41.2293 78.4015 41.4342 78.4015 41.6412C78.4015 41.8482 78.3599 42.0532 78.2793 42.2438C78.1987 42.4345 78.0806 42.607 77.932 42.7512L57.239 63.0112C56.9352 63.3062 56.5285 63.4711 56.105 63.4711C55.6816 63.4711 55.2748 63.3062 54.971 63.0112L40.285 48.6312C40.2091 48.5575 40.1074 48.5163 40.0015 48.5163C39.8957 48.5163 39.794 48.5575 39.718 48.6312L25.031 63.0122C24.7272 63.3072 24.3205 63.4721 23.897 63.4721C23.4736 63.4721 23.0668 63.3072 22.763 63.0122L2.07101 42.7512C1.92247 42.607 1.80438 42.4345 1.72374 42.2438C1.64311 42.0532 1.60156 41.8482 1.60156 41.6412C1.60156 41.4342 1.64311 41.2293 1.72374 41.0386C1.80438 40.848 1.92247 40.6754 2.07101 40.5312L6.66001 36.0372C6.96382 35.7423 7.37058 35.5773 7.79401 35.5773C8.21743 35.5773 8.6242 35.7423 8.92801 36.0372L23.614 50.4172C23.771 50.5702 24.024 50.5702 24.181 50.4172L38.867 36.0372C39.1708 35.7423 39.5776 35.5773 40.001 35.5773C40.4245 35.5773 40.8312 35.7423 41.135 36.0372L55.821 50.4172C55.978 50.5702 56.231 50.5702 56.388 50.4172L71.074 36.0372C71.3778 35.7423 71.7846 35.5773 72.208 35.5773C72.6315 35.5773 73.0382 35.7423 73.342 36.0372Z" fill="url(#paint4_radial_76_1554)"/>
<path d="M17.324 25.5972C29.848 13.3342 50.154 13.3342 62.678 25.5972L64.186 27.0732C64.3346 27.2174 64.4527 27.39 64.5333 27.5806C64.6139 27.7713 64.6555 27.9762 64.6555 28.1832C64.6555 28.3902 64.6139 28.5952 64.5333 28.7858C64.4527 28.9765 64.3346 29.149 64.186 29.2932L59.029 34.3412C58.8772 34.4884 58.674 34.5707 58.4625 34.5707C58.2511 34.5707 58.0479 34.4884 57.896 34.3412L55.821 32.3112C47.084 23.7562 32.918 23.7562 24.181 32.3112L21.959 34.4852C21.8071 34.6327 21.6038 34.7152 21.392 34.7152C21.1803 34.7152 20.9769 34.6327 20.825 34.4852L15.669 29.4372C15.5205 29.293 15.4024 29.1205 15.3218 28.9298C15.2411 28.7392 15.1996 28.5342 15.1996 28.3272C15.1996 28.1202 15.2411 27.9153 15.3218 27.7246C15.4024 27.534 15.5205 27.3614 15.669 27.2172L17.324 25.5972ZM73.342 36.0372L77.932 40.5312C78.0806 40.6754 78.1987 40.848 78.2793 41.0386C78.3599 41.2293 78.4015 41.4342 78.4015 41.6412C78.4015 41.8482 78.3599 42.0532 78.2793 42.2438C78.1987 42.4345 78.0806 42.607 77.932 42.7512L57.239 63.0112C56.9352 63.3062 56.5285 63.4711 56.105 63.4711C55.6816 63.4711 55.2748 63.3062 54.971 63.0112L40.285 48.6312C40.2091 48.5575 40.1074 48.5163 40.0015 48.5163C39.8957 48.5163 39.794 48.5575 39.718 48.6312L25.031 63.0122C24.7272 63.3072 24.3205 63.4721 23.897 63.4721C23.4736 63.4721 23.0668 63.3072 22.763 63.0122L2.07101 42.7512C1.92247 42.607 1.80438 42.4345 1.72374 42.2438C1.64311 42.0532 1.60156 41.8482 1.60156 41.6412C1.60156 41.4342 1.64311 41.2293 1.72374 41.0386C1.80438 40.848 1.92247 40.6754 2.07101 40.5312L6.66001 36.0372C6.96382 35.7423 7.37058 35.5773 7.79401 35.5773C8.21743 35.5773 8.6242 35.7423 8.92801 36.0372L23.614 50.4172C23.771 50.5702 24.024 50.5702 24.181 50.4172L38.867 36.0372C39.1708 35.7423 39.5776 35.5773 40.001 35.5773C40.4245 35.5773 40.8312 35.7423 41.135 36.0372L55.821 50.4172C55.978 50.5702 56.231 50.5702 56.388 50.4172L71.074 36.0372C71.3778 35.7423 71.7846 35.5773 72.208 35.5773C72.6315 35.5773 73.0382 35.7423 73.342 36.0372Z" fill="url(#paint5_radial_76_1554)"/>
<path d="M17.324 25.5972C29.848 13.3342 50.154 13.3342 62.678 25.5972L64.186 27.0732C64.3346 27.2174 64.4527 27.39 64.5333 27.5806C64.6139 27.7713 64.6555 27.9762 64.6555 28.1832C64.6555 28.3902 64.6139 28.5952 64.5333 28.7858C64.4527 28.9765 64.3346 29.149 64.186 29.2932L59.029 34.3412C58.8772 34.4884 58.674 34.5707 58.4625 34.5707C58.2511 34.5707 58.0479 34.4884 57.896 34.3412L55.821 32.3112C47.084 23.7562 32.918 23.7562 24.181 32.3112L21.959 34.4852C21.8071 34.6327 21.6038 34.7152 21.392 34.7152C21.1803 34.7152 20.9769 34.6327 20.825 34.4852L15.669 29.4372C15.5205 29.293 15.4024 29.1205 15.3218 28.9298C15.2411 28.7392 15.1996 28.5342 15.1996 28.3272C15.1996 28.1202 15.2411 27.9153 15.3218 27.7246C15.4024 27.534 15.5205 27.3614 15.669 27.2172L17.324 25.5972ZM73.342 36.0372L77.932 40.5312C78.0806 40.6754 78.1987 40.848 78.2793 41.0386C78.3599 41.2293 78.4015 41.4342 78.4015 41.6412C78.4015 41.8482 78.3599 42.0532 78.2793 42.2438C78.1987 42.4345 78.0806 42.607 77.932 42.7512L57.239 63.0112C56.9352 63.3062 56.5285 63.4711 56.105 63.4711C55.6816 63.4711 55.2748 63.3062 54.971 63.0112L40.285 48.6312C40.2091 48.5575 40.1074 48.5163 40.0015 48.5163C39.8957 48.5163 39.794 48.5575 39.718 48.6312L25.031 63.0122C24.7272 63.3072 24.3205 63.4721 23.897 63.4721C23.4736 63.4721 23.0668 63.3072 22.763 63.0122L2.07101 42.7512C1.92247 42.607 1.80438 42.4345 1.72374 42.2438C1.64311 42.0532 1.60156 41.8482 1.60156 41.6412C1.60156 41.4342 1.64311 41.2293 1.72374 41.0386C1.80438 40.848 1.92247 40.6754 2.07101 40.5312L6.66001 36.0372C6.96382 35.7423 7.37058 35.5773 7.79401 35.5773C8.21743 35.5773 8.6242 35.7423 8.92801 36.0372L23.614 50.4172C23.771 50.5702 24.024 50.5702 24.181 50.4172L38.867 36.0372C39.1708 35.7423 39.5776 35.5773 40.001 35.5773C40.4245 35.5773 40.8312 35.7423 41.135 36.0372L55.821 50.4172C55.978 50.5702 56.231 50.5702 56.388 50.4172L71.074 36.0372C71.3778 35.7423 71.7846 35.5773 72.208 35.5773C72.6315 35.5773 73.0382 35.7423 73.342 36.0372Z" fill="url(#paint6_radial_76_1554)"/>
<path d="M24.5281 50.7749C24.3587 50.9403 24.1314 51.0328 23.8946 51.0328C23.6579 51.0328 23.4306 50.9403 23.2611 50.7749L8.5752 36.3959C8.36486 36.1926 8.08375 36.0789 7.7912 36.0789C7.49865 36.0789 7.21754 36.1926 7.0072 36.3959L2.4172 40.8889C2.31613 40.9866 2.23575 41.1036 2.18085 41.2329C2.12595 41.3623 2.09766 41.5014 2.09766 41.6419C2.09766 41.7825 2.12595 41.9216 2.18085 42.0509C2.23575 42.1803 2.31613 42.2973 2.4172 42.3949L23.1111 62.6549C23.3215 62.8583 23.6026 62.9719 23.8951 62.9719C24.1877 62.9719 24.4688 62.8583 24.6791 62.6549L39.3662 48.2739C39.5355 48.1089 39.7627 48.0165 39.9991 48.0165C40.2356 48.0165 40.4628 48.1089 40.6321 48.2739L55.3191 62.6539C55.5295 62.8573 55.8106 62.9709 56.1031 62.9709C56.3957 62.9709 56.6768 62.8573 56.8872 62.6539L77.5791 42.3939C77.6802 42.2963 77.7606 42.1793 77.8155 42.0499C77.8704 41.9206 77.8987 41.7815 77.8987 41.6409C77.8987 41.5004 77.8704 41.3613 77.8155 41.2319C77.7606 41.1026 77.6802 40.9856 77.5791 40.8879L72.9912 36.3939L72.9892 36.3949C72.7788 36.1916 72.4977 36.0779 72.2052 36.0779C71.9126 36.0779 71.6315 36.1916 71.4211 36.3949L56.7351 50.7749C56.5657 50.9403 56.3384 51.0328 56.1017 51.0328C55.8649 51.0328 55.6376 50.9403 55.4682 50.7749L40.7822 36.3949C40.5718 36.1916 40.2907 36.0779 39.9982 36.0779C39.7056 36.0779 39.4245 36.1916 39.2141 36.3949L24.5281 50.7749ZM24.5281 50.7749L24.1782 50.4179M17.6712 25.9539C30.0012 13.8819 49.9972 13.8819 62.3272 25.9539L63.8341 27.4299C63.9352 27.5276 64.0156 27.6446 64.0705 27.7739C64.1254 27.9033 64.1537 28.0424 64.1537 28.1829C64.1537 28.3235 64.1254 28.4626 64.0705 28.5919C64.0156 28.7213 63.9352 28.8383 63.8341 28.9359L58.6782 33.9839C58.6197 34.0398 58.542 34.071 58.4611 34.071C58.3803 34.071 58.3026 34.0398 58.2442 33.9839L56.1691 31.9539C47.2381 23.2079 32.7611 23.2079 23.8291 31.9539L21.6081 34.1279C21.5497 34.1841 21.4717 34.2155 21.3907 34.2155C21.3096 34.2155 21.2316 34.1841 21.1731 34.1279L16.0171 29.0799C15.9161 28.9823 15.8357 28.8653 15.7808 28.7359C15.7259 28.6066 15.6976 28.4675 15.6976 28.3269C15.6976 28.1864 15.7259 28.0473 15.7808 27.9179C15.8357 27.7886 15.9161 27.6716 16.0171 27.5739L17.6712 25.9539Z" stroke="white" stroke-opacity="0.1"/>
<defs>
<radialGradient id="paint0_radial_76_1554" cx="0" cy="0" r="1" gradientUnits="userSpaceOnUse" gradientTransform="translate(56.5005 63.0003) rotate(-127.117) scale(23.2002 37.853)">
<stop stop-color="#70D75B"/>
<stop offset="0.477" stop-color="#7CD94E"/>
<stop offset="1" stop-color="#7CD94E" stop-opacity="0"/>
</radialGradient>
<radialGradient id="paint1_radial_76_1554" cx="0" cy="0" r="1" gradientUnits="userSpaceOnUse" gradientTransform="translate(45.001 35.0001) rotate(120.964) scale(11.6619 31.7572)">
<stop stop-color="#4567FB"/>
<stop offset="0.924" stop-color="#4567FB"/>
<stop offset="1" stop-color="#4567FB" stop-opacity="0"/>
</radialGradient>
<radialGradient id="paint2_radial_76_1554" cx="0" cy="0" r="1" gradientUnits="userSpaceOnUse" gradientTransform="translate(47.501 15.0002) rotate(125.655) scale(28.3064 70.4549)">
<stop stop-color="#C4397E"/>
<stop offset="0.322" stop-color="#C6397F"/>
<stop offset="1" stop-color="#C6397F" stop-opacity="0"/>
</radialGradient>
<radialGradient id="paint3_radial_76_1554" cx="0" cy="0" r="1" gradientUnits="userSpaceOnUse" gradientTransform="translate(68.501 35.5002) rotate(127.405) scale(21.4009 23.2471)">
<stop stop-color="#F651CC"/>
<stop offset="0.681" stop-color="#F64ECC"/>
<stop offset="1" stop-color="#F64ECC" stop-opacity="0"/>
</radialGradient>
<radialGradient id="paint4_radial_76_1554" cx="0" cy="0" r="1" gradientUnits="userSpaceOnUse" gradientTransform="translate(62.0019 22.5008) rotate(135) scale(13.435 14.9028)">
<stop stop-color="#C251FB"/>
<stop offset="0.873" stop-color="#C251FB"/>
<stop offset="1" stop-color="#C251FB" stop-opacity="0"/>
</radialGradient>
<radialGradient id="paint5_radial_76_1554" cx="0" cy="0" r="1" gradientUnits="userSpaceOnUse" gradientTransform="translate(0.501011 39.0002) rotate(25.1448) scale(27.0647 44.1583)">
<stop stop-color="#8551EC"/>
<stop offset="0.72" stop-color="#8551EC"/>
<stop offset="1" stop-color="#8551EC" stop-opacity="0"/>
</radialGradient>
<radialGradient id="paint6_radial_76_1554" cx="0" cy="0" r="1" gradientUnits="userSpaceOnUse" gradientTransform="translate(18.501 24.0002) rotate(46.6366) scale(12.3794 20.198)">
<stop stop-color="#10937D"/>
<stop offset="0.48" stop-color="#10937D"/>
<stop offset="1" stop-color="#10937D" stop-opacity="0"/>
</radialGradient>
</defs>
</svg>
